# xmcd
#
# Track frame offsets:
#	150
#	17850
#	34350
#	52350
#	66750
#	80025
#	98175
#	109950
#	130050
#	147450
#	162075
#	182850
#	200625
#
# Disc length: 2896 seconds
#
# Revision: 1
# Processed by: cddbd v1.5.2PL0 Copyright (c) Steve Scherf et al.
# Submitted via: audiograbber 1.83.01
#
DISCID=c80b4e0d
DTITLE=Carrie Underwood - Play On
DYEAR=2009
DGENRE=Country
TTITLE0=Cowboy Casanova
TTITLE1=Quitter
TTITLE2=Mama's Song
TTITLE3=Change
TTITLE4=Undo It
TTITLE5=Someday When I Stop Loving You
TTITLE6=Songs Like This
TTITLE7=Temporary Home
TTITLE8=This Time
TTITLE9=Look At Me
TTITLE10=Unapologize
TTITLE11=What Can I Say (Featuring Sons of Sylvia)
TTITLE12=Play On
EXTD=
EXTT0=
EXTT1=
EXTT2=
EXTT3=
EXTT4=
EXTT5=
EXTT6=
EXTT7=
EXTT8=
EXTT9=
EXTT10=
EXTT11=
EXTT12=
PLAYORDER=
